<svg width="195" height="135" viewBox="0 0 195 135" fill="none" xmlns="http://www.w3.org/2000/svg">
<line x1="0.417307" y1="1.15091" x2="0.417301" y2="127.868" stroke="#D4D4D4" stroke-width="0.700092" stroke-dasharray="4.2 4.2"/>
<line x1="29.821" y1="1.1517" x2="29.821" y2="127.868" stroke="#D4D4D4" stroke-width="0.700092" stroke-dasharray="4.2 4.2"/>
<line x1="59.2246" y1="1.15135" x2="59.2246" y2="127.868" stroke="#D4D4D4" stroke-width="0.700092" stroke-dasharray="4.2 4.2"/>
<line x1="88.6292" y1="1.15082" x2="88.6292" y2="127.867" stroke="#D4D4D4" stroke-width="0.700092" stroke-dasharray="4.2 4.2"/>
<line x1="118.033" y1="1.15045" x2="118.033" y2="127.867" stroke="#D4D4D4" stroke-width="0.700092" stroke-dasharray="4.2 4.2"/>
<line x1="147.436" y1="1.15126" x2="147.436" y2="127.868" stroke="#D4D4D4" stroke-width="0.700092" stroke-dasharray="4.2 4.2"/>
<line x1="176.84" y1="1.15205" x2="176.84" y2="127.869" stroke="#D4D4D4" stroke-width="0.700092" stroke-dasharray="4.2 4.2"/>
<path d="M8.0629 85.8242C7.92941 85.8242 7.82627 85.7878 7.75346 85.715C7.68065 85.6422 7.64424 85.536 7.64424 85.3964V84.4226H5.11411C4.98063 84.4226 4.87141 84.3923 4.78647 84.3316C4.70759 84.2709 4.66815 84.1769 4.66815 84.0494C4.66815 83.9766 4.68635 83.9008 4.72276 83.8219C4.75916 83.743 4.82287 83.6369 4.91388 83.5034L7.61694 79.5626C7.68368 79.4715 7.75346 79.4018 7.82627 79.3532C7.90514 79.3047 7.99312 79.2804 8.0902 79.2804C8.19941 79.2804 8.29043 79.3168 8.36324 79.3896C8.44211 79.4564 8.48155 79.5626 8.48155 79.7082V83.7036H9.10043C9.23392 83.7036 9.33403 83.7339 9.40077 83.7946C9.46751 83.8553 9.50089 83.9433 9.50089 84.0585C9.50089 84.1799 9.46751 84.2709 9.40077 84.3316C9.33403 84.3923 9.23392 84.4226 9.10043 84.4226H8.48155V85.3964C8.48155 85.536 8.44515 85.6422 8.37234 85.715C8.29953 85.7878 8.19638 85.8242 8.0629 85.8242ZM7.64424 83.7036V80.3362H7.87177L5.41445 83.9311V83.7036H7.64424ZM12.5735 85.8424C12.2338 85.8424 11.8909 85.7938 11.5451 85.6968C11.2053 85.5936 10.8959 85.4389 10.6168 85.2326C10.5379 85.178 10.4833 85.1143 10.453 85.0415C10.4287 84.9626 10.4257 84.8868 10.4439 84.8139C10.4621 84.7411 10.4985 84.6805 10.5531 84.6319C10.6077 84.5773 10.6714 84.547 10.7442 84.5409C10.8231 84.5348 10.905 84.5591 10.9899 84.6137C11.2326 84.7836 11.4844 84.911 11.7453 84.996C12.0062 85.0748 12.2793 85.1143 12.5644 85.1143C12.8496 85.1143 13.0953 85.0597 13.3016 84.9505C13.5079 84.8412 13.6657 84.6896 13.7749 84.4954C13.8902 84.3012 13.9478 84.0737 13.9478 83.8128C13.9478 83.4124 13.8295 83.0847 13.5929 82.8299C13.3562 82.5751 13.0347 82.4476 12.6281 82.4476C12.3794 82.4476 12.1488 82.4931 11.9364 82.5842C11.7302 82.6691 11.536 82.8147 11.354 83.021C11.3115 83.0695 11.2569 83.112 11.1902 83.1484C11.1295 83.1848 11.0597 83.203 10.9808 83.203C10.8655 83.203 10.7776 83.1727 10.7169 83.112C10.6562 83.0453 10.6259 82.9573 10.6259 82.8481V79.7264C10.6259 79.605 10.6592 79.511 10.726 79.4442C10.7927 79.3775 10.8868 79.3441 11.0081 79.3441H14.0752C14.1966 79.3441 14.2906 79.3745 14.3574 79.4351C14.4241 79.4958 14.4575 79.5838 14.4575 79.6991C14.4575 79.8144 14.4241 79.9054 14.3574 79.9721C14.2906 80.0328 14.1966 80.0631 14.0752 80.0631H11.4541V82.4931H11.2175C11.3813 82.2504 11.5997 82.0624 11.8727 81.9289C12.1518 81.7954 12.4583 81.7286 12.792 81.7286C13.1985 81.7286 13.5474 81.8166 13.8386 81.9926C14.1359 82.1625 14.3665 82.4021 14.5303 82.7116C14.6941 83.0149 14.776 83.3699 14.776 83.7764C14.776 84.1769 14.685 84.5348 14.503 84.8503C14.327 85.1598 14.0752 85.4025 13.7476 85.5784C13.4199 85.7544 13.0286 85.8424 12.5735 85.8424Z" fill="#D4D4D4"/>
<path d="M36.3208 85.8418C35.9689 85.8418 35.617 85.7933 35.2651 85.6962C34.9132 85.5991 34.6068 85.4535 34.3459 85.2594C34.2609 85.1987 34.2033 85.1289 34.1729 85.05C34.1426 84.9711 34.1335 84.8983 34.1456 84.8316C34.1638 84.7588 34.2002 84.6981 34.2548 84.6496C34.3094 84.601 34.3762 84.5737 34.4551 84.5677C34.5339 84.5555 34.6189 84.5768 34.7099 84.6314C34.9708 84.8013 35.2287 84.9256 35.4835 85.0045C35.7444 85.0773 36.0144 85.1137 36.2935 85.1137C36.5908 85.1137 36.8426 85.0713 37.0489 84.9863C37.2552 84.8953 37.4099 84.7649 37.5131 84.595C37.6223 84.419 37.6769 84.2097 37.6769 83.967C37.6769 83.6029 37.5586 83.3299 37.3219 83.1479C37.0853 82.9598 36.7395 82.8657 36.2844 82.8657H35.6473C35.5199 82.8657 35.4228 82.8354 35.3561 82.7747C35.2893 82.708 35.256 82.62 35.256 82.5108C35.256 82.3955 35.2893 82.3075 35.3561 82.2469C35.4228 82.1862 35.5199 82.1558 35.6473 82.1558H36.2116C36.4786 82.1558 36.7061 82.1103 36.8942 82.0193C37.0823 81.9222 37.2279 81.7888 37.331 81.6189C37.4403 81.449 37.4949 81.2427 37.4949 81C37.4949 80.6724 37.3887 80.4236 37.1763 80.2537C36.964 80.0777 36.6576 79.9898 36.2571 79.9898C35.9962 79.9898 35.7505 80.0292 35.5199 80.1081C35.2893 80.1809 35.0557 80.3053 34.8191 80.4812C34.7402 80.5358 34.6614 80.5631 34.5825 80.5631C34.5036 80.5571 34.4369 80.5298 34.3823 80.4812C34.3337 80.4327 34.3003 80.375 34.2821 80.3083C34.2639 80.2355 34.267 80.1597 34.2912 80.0808C34.3155 80.0019 34.3701 79.9321 34.4551 79.8714C34.7038 79.6773 34.989 79.5286 35.3106 79.4255C35.6382 79.3163 35.975 79.2617 36.3208 79.2617C36.7395 79.2617 37.0974 79.3284 37.3948 79.4619C37.6981 79.5954 37.9287 79.7865 38.0864 80.0353C38.2442 80.278 38.3231 80.5722 38.3231 80.9181C38.3231 81.179 38.2745 81.4187 38.1775 81.6371C38.0804 81.8494 37.9408 82.0315 37.7588 82.1832C37.5828 82.3288 37.3674 82.4319 37.1126 82.4926V82.3925C37.5555 82.4714 37.8983 82.6564 38.141 82.9477C38.3898 83.2328 38.5142 83.5908 38.5142 84.0216C38.5142 84.3917 38.4232 84.7163 38.2412 84.9954C38.0652 85.2685 37.8134 85.4778 37.4858 85.6234C37.1581 85.769 36.7698 85.8418 36.3208 85.8418ZM41.9782 85.8418C41.6384 85.8418 41.2956 85.7933 40.9498 85.6962C40.61 85.5931 40.3005 85.4383 40.0214 85.232C39.9426 85.1774 39.888 85.1137 39.8576 85.0409C39.8333 84.962 39.8303 84.8862 39.8485 84.8134C39.8667 84.7406 39.9031 84.6799 39.9577 84.6314C40.0123 84.5768 40.076 84.5464 40.1489 84.5404C40.2277 84.5343 40.3096 84.5586 40.3946 84.6132C40.6373 84.7831 40.8891 84.9105 41.15 84.9954C41.4109 85.0743 41.6839 85.1137 41.9691 85.1137C42.2543 85.1137 42.5 85.0591 42.7063 84.9499C42.9126 84.8407 43.0703 84.689 43.1796 84.4949C43.2948 84.3007 43.3525 84.0732 43.3525 83.8123C43.3525 83.4118 43.2342 83.0842 42.9975 82.8293C42.7609 82.5745 42.4393 82.4471 42.0328 82.4471C41.784 82.4471 41.5535 82.4926 41.3411 82.5836C41.1348 82.6685 40.9407 82.8142 40.7586 83.0205C40.7162 83.069 40.6616 83.1115 40.5948 83.1479C40.5341 83.1843 40.4644 83.2025 40.3855 83.2025C40.2702 83.2025 40.1822 83.1721 40.1216 83.1115C40.0609 83.0447 40.0305 82.9568 40.0305 82.8475V79.7258C40.0305 79.6045 40.0639 79.5104 40.1307 79.4437C40.1974 79.3769 40.2914 79.3436 40.4128 79.3436H43.4799C43.6012 79.3436 43.6953 79.3739 43.762 79.4346C43.8288 79.4953 43.8621 79.5832 43.8621 79.6985C43.8621 79.8138 43.8288 79.9048 43.762 79.9716C43.6953 80.0322 43.6012 80.0626 43.4799 80.0626H40.8587V82.4926H40.6221C40.7859 82.2499 41.0044 82.0618 41.2774 81.9283C41.5565 81.7948 41.8629 81.7281 42.1966 81.7281C42.6031 81.7281 42.952 81.8161 43.2433 81.992C43.5406 82.1619 43.7711 82.4016 43.935 82.711C44.0988 83.0144 44.1807 83.3693 44.1807 83.7759C44.1807 84.1763 44.0897 84.5343 43.9076 84.8498C43.7317 85.1592 43.4799 85.4019 43.1522 85.5779C42.8246 85.7539 42.4333 85.8418 41.9782 85.8418Z" fill="#D4D4D4"/>
<path d="M64.2581 85.7609C64.1125 85.7609 64.0033 85.7275 63.9305 85.6608C63.8637 85.588 63.8304 85.4909 63.8304 85.3695C63.8304 85.2967 63.8486 85.2239 63.885 85.1511C63.9214 85.0783 63.976 85.0055 64.0488 84.9327L66.0419 82.7939C66.3453 82.4723 66.5637 82.175 66.6972 81.902C66.8307 81.629 66.8975 81.3529 66.8975 81.0738C66.8975 80.7219 66.7882 80.4549 66.5698 80.2729C66.3574 80.0848 66.045 79.9907 65.6324 79.9907C65.3776 79.9907 65.1318 80.0332 64.8952 80.1182C64.6646 80.197 64.4371 80.3214 64.2126 80.4913C64.1277 80.552 64.0488 80.5793 63.976 80.5732C63.9032 80.5671 63.8395 80.5398 63.7848 80.4913C63.7363 80.4367 63.6999 80.376 63.6756 80.3093C63.6574 80.2365 63.6605 80.1606 63.6847 80.0818C63.709 80.0029 63.7606 79.9361 63.8395 79.8815C64.0882 79.6874 64.3764 79.5357 64.7041 79.4265C65.0317 79.3173 65.3685 79.2626 65.7143 79.2626C66.1512 79.2626 66.5182 79.3324 66.8155 79.472C67.1189 79.6055 67.3495 79.8026 67.5072 80.0635C67.665 80.3184 67.7439 80.6309 67.7439 81.001C67.7439 81.2558 67.7014 81.5076 67.6164 81.7564C67.5315 81.9991 67.4041 82.2478 67.2342 82.5027C67.0704 82.7575 66.858 83.0214 66.5971 83.2945L64.7041 85.2876V85.0419H67.6893C67.8106 85.0419 67.9016 85.0722 67.9623 85.1329C68.029 85.1936 68.0624 85.2816 68.0624 85.3968C68.0624 85.5121 68.029 85.6031 67.9623 85.6699C67.9016 85.7306 67.8106 85.7609 67.6893 85.7609H64.2581ZM71.3808 85.8428C71.041 85.8428 70.6982 85.7943 70.3523 85.6972C70.0126 85.594 69.7031 85.4393 69.424 85.233C69.3451 85.1784 69.2905 85.1147 69.2602 85.0419C69.2359 84.963 69.2329 84.8872 69.2511 84.8144C69.2693 84.7416 69.3057 84.6809 69.3603 84.6323C69.4149 84.5777 69.4786 84.5474 69.5514 84.5413C69.6303 84.5353 69.7122 84.5595 69.7972 84.6141C70.0399 84.784 70.2917 84.9115 70.5526 84.9964C70.8135 85.0753 71.0865 85.1147 71.3717 85.1147C71.6569 85.1147 71.9026 85.0601 72.1089 84.9509C72.3152 84.8417 72.4729 84.69 72.5821 84.4958C72.6974 84.3017 72.7551 84.0741 72.7551 83.8132C72.7551 83.4128 72.6367 83.0851 72.4001 82.8303C72.1635 82.5755 71.8419 82.4481 71.4354 82.4481C71.1866 82.4481 70.9561 82.4936 70.7437 82.5846C70.5374 82.6695 70.3432 82.8151 70.1612 83.0214C70.1188 83.07 70.0641 83.1124 69.9974 83.1489C69.9367 83.1853 69.867 83.2035 69.7881 83.2035C69.6728 83.2035 69.5848 83.1731 69.5241 83.1124C69.4635 83.0457 69.4331 82.9577 69.4331 82.8485V79.7268C69.4331 79.6055 69.4665 79.5114 69.5332 79.4447C69.6 79.3779 69.694 79.3446 69.8154 79.3446H72.8825C73.0038 79.3446 73.0979 79.3749 73.1646 79.4356C73.2314 79.4962 73.2647 79.5842 73.2647 79.6995C73.2647 79.8148 73.2314 79.9058 73.1646 79.9725C73.0979 80.0332 73.0038 80.0635 72.8825 80.0635H70.2613V82.4936H70.0247C70.1885 82.2509 70.407 82.0628 70.68 81.9293C70.9591 81.7958 71.2655 81.7291 71.5992 81.7291C72.0057 81.7291 72.3546 81.817 72.6458 81.993C72.9432 82.1629 73.1737 82.4026 73.3375 82.712C73.5014 83.0154 73.5833 83.3703 73.5833 83.7768C73.5833 84.1773 73.4923 84.5353 73.3102 84.8508C73.1343 85.1602 72.8825 85.4029 72.5548 85.5789C72.2272 85.7548 71.8358 85.8428 71.3808 85.8428Z" fill="#D4D4D4"/>
<path d="M93.8905 85.7615C93.7753 85.7615 93.6842 85.7282 93.6175 85.6614C93.5508 85.5947 93.5174 85.5067 93.5174 85.3975C93.5174 85.2822 93.5508 85.1942 93.6175 85.1336C93.6842 85.0729 93.7753 85.0425 93.8905 85.0425H95.0373V80.046H95.4742L94.1454 80.9015C94.0604 80.9561 93.9785 80.9804 93.8996 80.9743C93.8268 80.9622 93.7631 80.9318 93.7085 80.8833C93.6539 80.8287 93.6175 80.765 93.5993 80.6922C93.5811 80.6194 93.5841 80.5466 93.6084 80.4737C93.6387 80.3949 93.6994 80.3312 93.7904 80.2826L95.0464 79.4635C95.1374 79.4089 95.2224 79.3664 95.3012 79.3361C95.3862 79.2997 95.4681 79.2815 95.547 79.2815C95.638 79.2815 95.7168 79.3088 95.7836 79.3634C95.8503 79.418 95.8837 79.506 95.8837 79.6273V85.0425H96.9394C97.0608 85.0425 97.1518 85.0729 97.2125 85.1336C97.2792 85.1942 97.3126 85.2822 97.3126 85.3975C97.3126 85.5128 97.2792 85.6038 97.2125 85.6705C97.1518 85.7312 97.0608 85.7615 96.9394 85.7615H93.8905ZM100.786 85.8434C100.446 85.8434 100.103 85.7949 99.7573 85.6978C99.4175 85.5947 99.108 85.44 98.8289 85.2337C98.7501 85.1791 98.6955 85.1154 98.6651 85.0425C98.6408 84.9637 98.6378 84.8878 98.656 84.815C98.6742 84.7422 98.7106 84.6815 98.7652 84.633C98.8198 84.5784 98.8835 84.548 98.9564 84.542C99.0352 84.5359 99.1171 84.5602 99.2021 84.6148C99.4448 84.7847 99.6966 84.9121 99.9575 84.997C100.218 85.0759 100.491 85.1154 100.777 85.1154C101.062 85.1154 101.307 85.0607 101.514 84.9515C101.72 84.8423 101.878 84.6906 101.987 84.4965C102.102 84.3023 102.16 84.0748 102.16 83.8139C102.16 83.4134 102.042 83.0858 101.805 82.831C101.568 82.5761 101.247 82.4487 100.84 82.4487C100.592 82.4487 100.361 82.4942 100.149 82.5852C99.9423 82.6702 99.7482 82.8158 99.5661 83.0221C99.5237 83.0706 99.4691 83.1131 99.4023 83.1495C99.3416 83.1859 99.2719 83.2041 99.193 83.2041C99.0777 83.2041 98.9897 83.1738 98.929 83.1131C98.8684 83.0463 98.838 82.9584 98.838 82.8492V79.7274C98.838 79.6061 98.8714 79.5121 98.9381 79.4453C99.0049 79.3786 99.0989 79.3452 99.2203 79.3452H102.287C102.409 79.3452 102.503 79.3755 102.57 79.4362C102.636 79.4969 102.67 79.5849 102.67 79.7001C102.67 79.8154 102.636 79.9064 102.57 79.9732C102.503 80.0339 102.409 80.0642 102.287 80.0642H99.6662V82.4942H99.4296C99.5934 82.2515 99.8119 82.0634 100.085 81.9299C100.364 81.7965 100.67 81.7297 101.004 81.7297C101.411 81.7297 101.76 81.8177 102.051 81.9936C102.348 82.1635 102.579 82.4032 102.742 82.7126C102.906 83.016 102.988 83.371 102.988 83.7775C102.988 84.1779 102.897 84.5359 102.715 84.8514C102.539 85.1609 102.287 85.4036 101.96 85.5795C101.632 85.7555 101.241 85.8434 100.786 85.8434Z" fill="#D4D4D4"/>
<path d="M124.732 85.8431C124.392 85.8431 124.05 85.7945 123.704 85.6975C123.364 85.5943 123.054 85.4396 122.775 85.2333C122.696 85.1787 122.642 85.115 122.612 85.0422C122.587 84.9633 122.584 84.8875 122.602 84.8146C122.621 84.7418 122.657 84.6812 122.712 84.6326C122.766 84.578 122.83 84.5477 122.903 84.5416C122.982 84.5355 123.064 84.5598 123.148 84.6144C123.391 84.7843 123.643 84.9117 123.904 84.9967C124.165 85.0755 124.438 85.115 124.723 85.115C125.008 85.115 125.254 85.0604 125.46 84.9512C125.666 84.8419 125.824 84.6903 125.933 84.4961C126.049 84.3019 126.106 84.0744 126.106 83.8135C126.106 83.4131 125.988 83.0854 125.751 82.8306C125.515 82.5758 125.193 82.4483 124.787 82.4483C124.538 82.4483 124.307 82.4938 124.095 82.5849C123.889 82.6698 123.695 82.8154 123.513 83.0217C123.47 83.0703 123.415 83.1127 123.349 83.1491C123.288 83.1855 123.218 83.2037 123.139 83.2037C123.024 83.2037 122.936 83.1734 122.875 83.1127C122.815 83.046 122.784 82.958 122.784 82.8488V79.7271C122.784 79.6057 122.818 79.5117 122.885 79.4449C122.951 79.3782 123.045 79.3448 123.167 79.3448H126.234C126.355 79.3448 126.449 79.3752 126.516 79.4358C126.583 79.4965 126.616 79.5845 126.616 79.6998C126.616 79.8151 126.583 79.9061 126.516 79.9728C126.449 80.0335 126.355 80.0638 126.234 80.0638H123.613V82.4938H123.376C123.54 82.2511 123.758 82.0631 124.031 81.9296C124.31 81.7961 124.617 81.7293 124.951 81.7293C125.357 81.7293 125.706 81.8173 125.997 81.9933C126.294 82.1632 126.525 82.4028 126.689 82.7123C126.853 83.0156 126.935 83.3706 126.935 83.7771C126.935 84.1776 126.844 84.5355 126.662 84.8511C126.486 85.1605 126.234 85.4032 125.906 85.5791C125.579 85.7551 125.187 85.8431 124.732 85.8431Z" fill="#D4D4D4"/>
<path d="M154.018 85.8425C153.278 85.8425 152.714 85.5604 152.326 84.9961C151.943 84.4258 151.752 83.6097 151.752 82.5479C151.752 81.8259 151.837 81.2222 152.007 80.7368C152.183 80.2514 152.438 79.8843 152.772 79.6355C153.111 79.3868 153.527 79.2624 154.018 79.2624C154.765 79.2624 155.329 79.5415 155.711 80.0997C156.094 80.6518 156.285 81.4649 156.285 82.5388C156.285 83.2487 156.197 83.8494 156.021 84.3408C155.851 84.8323 155.599 85.2055 155.265 85.4603C154.932 85.7151 154.516 85.8425 154.018 85.8425ZM154.018 85.1236C154.504 85.1236 154.865 84.9142 155.101 84.4956C155.338 84.0769 155.456 83.4247 155.456 82.5388C155.456 81.653 155.338 81.0068 155.101 80.6003C154.871 80.1877 154.51 79.9814 154.018 79.9814C153.533 79.9814 153.172 80.1877 152.935 80.6003C152.699 81.0068 152.58 81.653 152.58 82.5388C152.58 83.4247 152.699 84.0769 152.935 84.4956C153.172 84.9142 153.533 85.1236 154.018 85.1236Z" fill="#D4D4D4"/>
<path d="M181.619 83.6763C181.522 83.6763 181.44 83.6429 181.373 83.5762C181.306 83.5094 181.273 83.4275 181.273 83.3304C181.273 83.2334 181.306 83.1545 181.373 83.0938C181.44 83.0271 181.522 82.9937 181.619 82.9937H183.648C183.739 82.9937 183.818 83.0271 183.885 83.0938C183.958 83.1545 183.994 83.2334 183.994 83.3304C183.994 83.4275 183.958 83.5094 183.885 83.5762C183.818 83.6429 183.739 83.6763 183.648 83.6763H181.619ZM187.423 85.8424C187.083 85.8424 186.741 85.7938 186.395 85.6967C186.055 85.5936 185.745 85.4389 185.466 85.2326C185.387 85.178 185.333 85.1143 185.303 85.0415C185.278 84.9626 185.275 84.8867 185.293 84.8139C185.312 84.7411 185.348 84.6804 185.403 84.6319C185.457 84.5773 185.521 84.547 185.594 84.5409C185.673 84.5348 185.755 84.5591 185.839 84.6137C186.082 84.7836 186.334 84.911 186.595 84.996C186.856 85.0748 187.129 85.1143 187.414 85.1143C187.699 85.1143 187.945 85.0597 188.151 84.9504C188.357 84.8412 188.515 84.6895 188.624 84.4954C188.74 84.3012 188.797 84.0737 188.797 83.8128C188.797 83.4123 188.679 83.0847 188.442 82.8299C188.206 82.575 187.884 82.4476 187.478 82.4476C187.229 82.4476 186.998 82.4931 186.786 82.5841C186.58 82.6691 186.386 82.8147 186.204 83.021C186.161 83.0695 186.106 83.112 186.04 83.1484C185.979 83.1848 185.909 83.203 185.83 83.203C185.715 83.203 185.627 83.1727 185.566 83.112C185.506 83.0453 185.475 82.9573 185.475 82.8481V79.7264C185.475 79.605 185.509 79.511 185.576 79.4442C185.642 79.3775 185.736 79.3441 185.858 79.3441H188.925C189.046 79.3441 189.14 79.3744 189.207 79.4351C189.274 79.4958 189.307 79.5838 189.307 79.6991C189.307 79.8143 189.274 79.9054 189.207 79.9721C189.14 80.0328 189.046 80.0631 188.925 80.0631H186.304V82.4931H186.067C186.231 82.2504 186.449 82.0623 186.722 81.9289C187.001 81.7954 187.308 81.7286 187.642 81.7286C188.048 81.7286 188.397 81.8166 188.688 81.9926C188.985 82.1624 189.216 82.4021 189.38 82.7116C189.544 83.0149 189.626 83.3699 189.626 83.7764C189.626 84.1768 189.535 84.5348 189.353 84.8503C189.177 85.1598 188.925 85.4025 188.597 85.5784C188.27 85.7544 187.878 85.8424 187.423 85.8424Z" fill="#D4D4D4"/>
<path d="M0.79187 134.148L21.5164 111.52C30.6615 101.535 43.5792 95.8491 57.1192 95.8491H71.9093C77.4022 95.8491 82.5902 93.3247 85.9801 89.0027L88.7655 85.4513C92.3574 80.8716 98.6651 79.4317 103.888 81.9992C110.407 85.2033 118.269 82.0987 120.839 75.3051L134.936 38.0484C138.344 29.0434 148.395 24.4928 157.41 27.8734C164.707 30.6098 172.934 28.1819 177.576 21.922L193.358 0.639618" stroke="url(#paint0_linear_15_484)" stroke-width="2.14758"/>
<path d="M0.792114 134.147L21.5167 111.519C30.6617 101.534 43.5795 95.8484 57.1195 95.8484H71.8576C77.3832 95.8484 82.6023 93.309 86.0124 88.9612L88.8022 85.4041C92.3804 80.8419 98.649 79.3802 103.876 81.8892" stroke="url(#paint1_linear_15_484)" stroke-width="2.14758"/>
<circle cx="103.159" cy="81.531" r="3.5793" fill="#38A1F7"/>
<circle cx="103.16" cy="81.5309" r="8.59033" fill="#38A1F7" fill-opacity="0.24"/>
<defs>
<linearGradient id="paint0_linear_15_484" x1="122.979" y1="71.0048" x2="206.747" y2="-12.7633" gradientUnits="userSpaceOnUse">
<stop stop-color="#C9C9C9"/>
<stop offset="1" stop-color="#EDEDED"/>
</linearGradient>
<linearGradient id="paint1_linear_15_484" x1="102.13" y1="79.1947" x2="3.84252" y2="133.923" gradientUnits="userSpaceOnUse">
<stop stop-color="#38A1F7"/>
<stop offset="0.736563" stop-color="#86C7FD"/>
<stop offset="1" stop-color="#EDEDED"/>
</linearGradient>
</defs>
</svg>
