<svg width="23" height="23" viewBox="0 0 23 23" fill="none" xmlns="http://www.w3.org/2000/svg">
<path d="M15.1342 13.882C15.0163 13.7603 14.8947 13.6424 14.7673 13.5341C14.3928 13.2204 13.4195 12.4924 12.8949 12.7946C12.5831 12.9752 12.6287 13.574 12.7428 13.823C13.026 14.4389 13.7522 14.9579 14.1951 15.4712C14.5449 15.878 14.9631 16.2411 15.3452 16.6212C15.9535 17.2315 16.5371 17.9158 17.1967 18.4728C17.1986 18.4728 21.2477 21.8926 22.2457 22.7366C22.3712 22.8431 22.5556 22.8336 22.6715 22.7195C22.7875 22.6036 22.7951 22.4192 22.6905 22.2937L18.4267 17.241C17.5921 16.4064 16.7557 15.57 15.9212 14.7336C15.6532 14.4656 15.4003 14.1595 15.1342 13.882Z" fill="#82AEC0"/>
<path d="M12.7352 13.8018C12.8702 13.6326 13.0165 13.4654 13.1762 13.3038C13.3435 13.1365 13.5184 12.9825 13.6952 12.8438C14.1172 13.0205 14.5449 13.3475 14.7654 13.5338C14.8928 13.6403 15.0145 13.7581 15.1323 13.8817C15.3984 14.1611 15.6494 14.4653 15.9193 14.7333C16.1721 14.9861 16.4269 15.2409 16.6797 15.4956C16.6797 15.4956 16.7253 15.8872 16.2786 16.3339C15.8319 16.7806 15.4612 16.7407 15.4612 16.7407C15.4213 16.7008 15.3832 16.6609 15.3433 16.621C14.9631 16.2408 14.543 15.8777 14.1932 15.4709C13.7503 14.9576 13.026 14.4387 12.7409 13.8227C12.739 13.817 12.7371 13.8075 12.7352 13.8018Z" fill="#2F7889"/>
<path d="M15.7898 14.7477C16.7003 13.7668 17.5101 12.7042 18.1679 11.6035C18.4454 11.1397 18.8066 10.2177 18.9168 9.32995C19.0442 8.31864 18.2971 7.39857 17.282 7.30733C16.0388 7.19517 14.1131 7.23699 12.7159 8.26921L8.22014 3.77344L3.72436 8.26731L8.22014 12.7612C7.18791 14.1565 7.14609 16.0803 7.25635 17.3235C7.3495 18.3519 8.29047 19.0952 9.31319 18.9545C10.2409 18.8253 11.2084 18.428 11.6856 18.1352C13.1569 17.2342 14.5655 16.0651 15.7898 14.7477Z" fill="#38A1F7"/>
<path d="M13.5173 8.90696L8.22118 3.77246C8.22118 3.77246 7.12622 5.22099 6.2936 6.07072C5.46098 6.91855 3.7235 8.26824 3.7235 8.26824L8.8504 13.3932C8.8504 13.3932 10.74 13.5681 12.1467 12.1614C13.7853 10.5209 13.5173 8.90696 13.5173 8.90696Z" fill="#38A1F7"/>
<path d="M11.0102 9.91257C10.7821 11.6082 10.1566 12.5587 9.82777 12.8458C9.29741 13.3039 8.54463 13.0853 8.22146 12.764L3.72569 8.26824C3.72569 8.26824 5.46316 6.92045 6.29579 6.07072C7.12841 5.22099 8.22146 3.77246 8.22146 3.77246L10.2441 5.71905C10.5996 6.06122 10.8391 6.50795 10.9151 6.99459C11.014 7.63902 11.2022 8.49255 11.0102 9.91257Z" fill="#297FC5"/>
<path d="M8.55513 0.288086L10.5492 2.2822C10.9218 2.57304 10.9332 2.94183 10.9332 2.94183C11.1385 4.08621 10.0208 6.19818 8.1008 8.12005C6.17892 10.0419 4.06696 11.1578 2.92258 10.9525C2.92258 10.9525 2.61842 10.9772 2.32567 10.6312L0.268834 8.57438L8.55513 0.288086Z" fill="#38A1F7"/>
<path d="M0.269633 8.57446C1.08324 9.49833 3.70087 8.29692 5.98963 6.00816C8.27838 3.71941 9.42657 1.15881 8.55593 0.288169C7.68528 -0.582472 5.1475 0.590422 2.83593 2.85447C0.6004 5.04248 -0.562989 7.62968 0.269633 8.57446Z" fill="#38A1F7"/>
<path d="M13.4101 8.99376C13.4253 8.26189 14.8852 7.38554 15.7882 8.13262C16.5505 8.76374 16.2425 10.1077 15.8528 10.813C15.4213 11.5943 14.8092 12.3185 14.007 12.7101C13.2029 13.1036 11.9939 12.8869 12.4197 12.1018C12.9843 11.0601 13.3759 10.5659 13.4101 8.99376ZM5.97732 5.57963C2.34268 9.15154 1.01391 8.46719 0.751576 8.26379C0.565281 8.12122 0.477838 7.87029 0.455026 7.62887C0.394195 6.99394 0.814308 5.86097 1.12607 5.3154C1.93778 3.89538 2.71527 3.04945 5.00403 1.32718C6.01534 0.564891 7.50569 0.121967 8.00945 0.564891C8.60255 1.08575 8.66528 2.93729 5.97732 5.57963Z" fill="#79BFF9"/>
</svg>
