<?xml version="1.0" encoding="UTF-8"?>
<svg xmlns="http://www.w3.org/2000/svg" version="1.1" viewBox="0 0 4403.7 1222.8">
  <defs>
    <style>
      .cls-1 {
        fill: #2a2961;
      }

      .cls-2 {
        fill: #9392ae;
      }
    </style>
  </defs>
  <!-- Generator: Adobe Illustrator 28.7.4, SVG Export Plug-In . SVG Version: 1.2.0 Build 166)  -->
  <g>
    <g id="Calque_2">
      <g id="Layer_1">
        <g>
          <path class="cls-1" d="M1220.4,657.7c-20.3-11.3-36-27.4-47.2-48.2-11.2-20.8-16.8-44.8-16.8-72.1v-100.6c0-27.2,5.6-51.3,16.8-72.1,11.2-20.8,26.9-36.9,47.2-48.2,20.2-11.4,43.7-17,70.2-17h55.5c26.5,0,50,5.7,70.5,17,20.4,11.4,36.2,27.4,47.4,48.2,11.2,20.8,16.8,44.8,16.8,72.1v100.6c0,27.2-5.6,51.3-16.8,72.1-11.2,20.8-27,36.9-47.4,48.2-20.4,11.4-43.9,17-70.5,17h-55.5c-26.6,0-49.9-5.7-70.2-17ZM1346.1,620.8c21.7,0,39.3-7.9,52.9-23.6s20.4-36.3,20.4-61.8v-96.4c0-25.5-6.7-46.1-20.2-61.8-13.4-15.7-31.2-23.6-53.2-23.6h-55c-22,0-39.7,7.9-53.2,23.6-13.4,15.7-20.2,36.3-20.2,61.8v96.4c0,25.5,6.7,46.1,20.2,61.8,13.4,15.7,31.2,23.6,53.2,23.6h55Z"/>
          <path class="cls-1" d="M1539.4,409h56.1v30.9c7.3-10.5,16.8-19,28.6-25.4,11.7-6.5,23.1-9.7,34.3-9.7h34.6c30.4,0,54.9,9.2,73.6,27.5,18.7,18.3,28,42.5,28,72.6v60.8c0,32.8-9.3,59.2-27.8,79.1-18.5,19.9-43.1,29.9-73.9,29.9h-35.1c-10.1,0-20.6-2.5-31.4-7.6-10.8-5.1-19.7-11.8-26.7-20.2v128.4h-60.2v-366.3h0ZM1686.6,622.9c14.3,0,25.9-5.6,34.8-16.8,8.9-11.2,13.4-25.9,13.4-44v-53.5c0-15.4-4.4-27.9-13.1-37.5-8.7-9.6-20.3-14.4-34.6-14.4h-33.5c-11.9,0-22.8,4.6-32.7,13.9s-17,21.2-21.2,35.9v60.8c1.7,16.4,7.6,29.8,17.6,40.1,9.9,10.3,21.9,15.5,35.9,15.5h33.5,0Z"/>
          <path class="cls-1" d="M1891.7,662.7c-16.2-8-28.8-19.4-37.7-34.1-8.9-14.7-13.4-31.6-13.4-50.8v-70.2c0-20.3,4.4-38.2,13.4-53.7,8.9-15.5,21.5-27.6,37.7-36.2s35-12.8,56.3-12.8h41.9c31.8,0,57.3,9.3,76.5,27.8,19.2,18.5,28.8,43.1,28.8,73.9v52.4h-194.4v18.9c0,14,4.3,25.2,12.8,33.5,8.6,8.4,20,12.6,34.3,12.6h40.3c14,0,25.2-3.4,33.8-10.2,8.6-6.8,12.8-15.8,12.8-27h59.2c0,26.6-9.8,47.9-29.3,63.9-19.6,16.1-45.2,24.1-77,24.1h-39.8c-21.3,0-40.1-4-56.3-12h0ZM2036.1,513.9v-7.3c0-15.4-4.2-27.8-12.6-37.2s-19.4-14.1-33-14.1h-42.4c-14.3,0-25.9,5-34.8,14.9-8.9,10-13.4,23-13.4,39v4.7h136.2Z"/>
          <path class="cls-1" d="M2149.2,409h56.1v34.1c7.7-11.5,17.8-20.8,30.4-27.8,12.6-7,25.1-10.5,37.7-10.5h32.5c26.9,0,48.5,8.6,64.7,25.7,16.2,17.1,24.4,39.7,24.4,67.6v172.4h-60.2v-170.9c0-12.6-3.2-22.8-9.7-30.7-6.5-7.9-14.9-11.8-25.4-11.8h-32.5c-13.6,0-25.9,5.2-36.7,15.5-10.8,10.3-17.8,23.5-21,39.6v158.3h-60.2v-261.5h0Z"/>
          <path class="cls-1" d="M2622.4,643.3c-21-21-31.4-49.6-31.4-86h60.2c0,19.6,5.1,35,15.4,46.4,10.3,11.4,24.5,17,42.7,17h58.1c17.1,0,30.9-3.8,41.4-11.3,10.5-7.5,15.7-17.4,15.7-29.6v-23.1c0-9.4-3.7-17.3-11-23.6-7.3-6.3-17.8-10.6-31.4-13.1l-95.4-16.2c-29.7-4.9-52.5-14.7-68.4-29.4-15.9-14.7-23.8-33.4-23.8-56.1v-28.8c0-17.8,4.8-33.5,14.4-47.2,9.6-13.6,23.1-24.2,40.6-31.7,17.5-7.5,37.7-11.3,60.8-11.3h59.2c21.6,0,40.8,4.4,57.4,13.4,16.6,8.9,29.4,21.6,38.5,38,9.1,16.4,13.6,35.3,13.6,56.6h-59.7c0-16.1-4.6-29.1-13.9-39-9.3-10-21.2-14.9-35.9-14.9h-59.2c-16.4,0-29.6,3.6-39.6,10.7-9.9,7.2-14.9,16.9-14.9,29.1v18.9c0,9.8,3.5,17.9,10.5,24.4,7,6.5,17.1,10.7,30.4,12.8l95.4,16.8c30,5.2,53.2,14.9,69.4,29.1s24.4,32.2,24.4,54.2v34.1c0,17.8-4.9,33.6-14.7,47.4-9.8,13.8-23.6,24.5-41.4,32.2-17.8,7.7-38.2,11.5-61.3,11.5h-60.2c-36.3,0-65-10.5-85.9-31.4h0Z"/>
          <path class="cls-1" d="M2980.5,662.7c-16.2-8-28.8-19.4-37.7-34.1-8.9-14.7-13.4-31.6-13.4-50.8v-70.2c0-20.3,4.4-38.2,13.4-53.7,8.9-15.5,21.5-27.6,37.7-36.2s35-12.8,56.3-12.8h41.9c31.8,0,57.3,9.3,76.5,27.8,19.2,18.5,28.8,43.1,28.8,73.9v52.4h-194.4v18.9c0,14,4.3,25.2,12.8,33.5,8.6,8.4,20,12.6,34.3,12.6h40.3c14,0,25.2-3.4,33.8-10.2,8.6-6.8,12.8-15.8,12.8-27h59.2c0,26.6-9.8,47.9-29.3,63.9-19.6,16.1-45.2,24.1-77,24.1h-39.8c-21.3,0-40.1-4-56.3-12h0ZM3124.9,513.9v-7.3c0-15.4-4.2-27.8-12.6-37.2-8.4-9.4-19.4-14.1-33-14.1h-42.4c-14.3,0-25.9,5-34.8,14.9-8.9,10-13.4,23-13.4,39v4.7h136.2Z"/>
          <path class="cls-1" d="M3209.7,641.2l146.2-181.3h-139.9v-50.8h225.8v29.4l-146.2,181.3h143.6v50.8h-229.5v-29.3h0Z"/>
          <path class="cls-1" d="M3497.6,654.6c-16.2-13.5-24.4-31.3-24.4-53.7v-18.9c0-22,8.5-39.6,25.4-52.9,16.9-13.3,39.2-19.9,66.8-19.9h32.5c9.8,0,20.2,1.4,31.4,4.2,11.2,2.8,21.1,6.5,29.9,11v-32.5c0-10.8-3.5-19.6-10.5-26.2-7-6.6-16.1-10-27.2-10h-44c-11.5,0-20.8,2.7-27.8,8.1-7,5.4-10.5,12.5-10.5,21.2h-58.7c0-24.1,8.9-43.5,26.7-58.2s41.2-22,70.2-22h44c29.3,0,52.9,8,70.7,23.9,17.8,15.9,26.7,37,26.7,63.1v178.7h-56.1v-33c-8.4,11.2-18.9,20.2-31.4,27-12.6,6.8-25,10.2-37.2,10.2h-32.5c-26.6,0-47.9-6.7-64.2-20.2h0ZM3597.9,627.6c14,0,26.5-3.9,37.7-11.8,11.2-7.9,19-18.2,23.6-31.2v-12.6c-5.9-4.9-14.3-8.8-25.1-11.8-10.8-3-22.2-4.5-34.1-4.5h-33c-10.5,0-18.9,2.6-25.4,7.9-6.5,5.2-9.7,12-9.7,20.4v14.7c0,8.7,3.3,15.7,9.9,21,6.6,5.2,15.4,7.9,26.2,7.9h29.9Z"/>
          <path class="cls-1" d="M4138.3,429.5c15.2,16.4,22.8,38.4,22.8,66v175h-60.2v-175.6c0-11.5-2.6-20.7-7.9-27.5s-12.2-10.2-21-10.2h-25.1c-11.5,0-21.3,4.1-29.3,12.3-8,8.2-13.3,19.3-15.7,33.3v167.7h-59.7v-174c0-11.9-2.6-21.4-7.9-28.6s-12.2-10.7-21-10.7h-23.6c-11.5,0-21.6,5.2-30.1,15.5-8.6,10.3-14.1,23.7-16.5,40.1v157.7h-60.2v-261.5h56.1v33c6.6-11.5,15-20.6,25.1-27.2,10.1-6.6,20.4-10,30.9-10h29.9c13.3,0,25.1,3.4,35.6,10.2,10.5,6.8,18.7,16.3,24.6,28.6,7.7-12.2,16.9-21.8,27.8-28.6,10.8-6.8,22.4-10.2,34.6-10.2h29.9c25.5,0,45.8,8.2,61,24.6h0Z"/>
        </g>
        <g>
          <path class="cls-2" d="M1204.6,810.4h-48.6v-14h113.4v14h-48.6v139.3h-16.2v-139.3h0Z"/>
          <path class="cls-2" d="M1320.9,840.4h15.3v16.9c2.9-5.1,7.3-9.3,13.3-12.5s12.1-4.8,18.5-4.8h9.6v14.2h-9.6c-9.3,0-16.9,3-22.7,8.9-5.8,5.9-8.7,13.8-8.7,23.5v63.1h-15.8v-109.3h0Z"/>
          <path class="cls-2" d="M1458.2,941.2c-6.3-6.9-9.4-15.8-9.4-26.9v-73.8h15.8v74.2c0,6.9,1.7,12.4,5,16.5,3.4,4.2,7.7,6.2,13.1,6.2h13.6c6.7,0,12.9-2.7,18.6-8.1,5.7-5.4,9.3-12.2,11-20.4v-68.5h15.8v109.3h-15.3v-16.6c-3.4,5.3-7.8,9.6-13.4,13.1-5.6,3.5-11,5.3-16.2,5.3h-14c-10.1,0-18.2-3.4-24.5-10.3h0Z"/>
          <path class="cls-2" d="M1630.8,942.1c-6.7-6.3-10.1-14.5-10.1-24.7h15.3c0,6.1,2,11.1,5.9,14.9,3.9,3.8,9.1,5.7,15.6,5.7h19c6.3,0,11.4-1.3,15.3-3.8,3.9-2.6,5.9-5.9,5.9-10v-7.4c0-2.8-1.1-5.2-3.3-7.3-2.2-2.1-5-3.5-8.5-4.3l-37.9-6.6c-7.6-1.3-13.7-4.2-18.3-8.7s-6.9-9.7-6.9-15.7v-7.2c0-8.5,3.2-15.3,9.6-20.5,6.4-5.2,14.9-7.8,25.4-7.8h18.8c10.2,0,18.5,2.9,24.7,8.7,6.3,5.8,9.4,13.4,9.4,22.9h-15.3c-.1-5.4-1.9-9.7-5.4-13-3.4-3.3-7.9-4.9-13.5-4.9h-18.8c-5.8,0-10.5,1.4-14,4.1s-5.3,6.2-5.3,10.6v6.4c0,2.8,1.2,5.3,3.6,7.4,2.4,2.2,5.5,3.6,9.3,4.2l37.7,6.6c7.3,1.3,13.2,4.2,17.6,8.5s6.7,9.6,6.7,15.8v8.8c0,8-3.4,14.5-10.2,19.5-6.8,5-15.7,7.4-26.8,7.4h-19c-11.1,0-20-3.1-26.7-9.4h0Z"/>
          <path class="cls-2" d="M1808.5,942.3c-5-5-7.6-13.1-7.6-24.5v-63.3h-19.3v-14h19.3v-33.1h15.8v33.1h28.5v14h-28.5v63.3c0,6.4,1.3,11,3.8,13.8s6.8,4.2,12.8,4.2h11.8v14h-11.8c-11.5,0-19.8-2.5-24.9-7.4Z"/>
          <path class="cls-2" d="M2121.7,907.2h-67.2l-15.8,42.5h-16.6l58.9-153.3h7.4c4.8,0,8.3,2.9,10.5,8.8l33.7,88.5h.2v.4l21.2,55.6h-16.6l-15.8-42.5h0ZM2059.5,893.7h57.2l-28.5-76.2h-.2l-28.5,76.2h0Z"/>
          <path class="cls-2" d="M2233,941.2c-6.3-6.9-9.4-15.8-9.4-26.9v-73.8h15.8v74.2c0,6.9,1.7,12.4,5,16.5,3.4,4.2,7.7,6.2,13.1,6.2h13.6c6.7,0,12.9-2.7,18.6-8.1,5.7-5.4,9.3-12.2,11-20.4v-68.5h15.8v109.3h-15.3v-16.6c-3.4,5.3-7.8,9.6-13.4,13.1-5.6,3.5-11,5.3-16.2,5.3h-14c-10.1,0-18.2-3.4-24.5-10.3h0Z"/>
          <path class="cls-2" d="M2419.2,942.3c-5-5-7.6-13.1-7.6-24.5v-63.3h-19.3v-14h19.3v-33.1h15.8v33.1h28.5v14h-28.5v63.3c0,6.4,1.3,11,3.8,13.8s6.8,4.2,12.8,4.2h11.8v14h-11.8c-11.5,0-19.8-2.5-24.9-7.4Z"/>
          <path class="cls-2" d="M2536.3,796.4h15.8v59.1c3.4-5.1,7.7-9.2,12.9-12.3,5.3-3.1,10.6-4.6,16-4.6h15.3c10.1,0,18.2,3.4,24.4,10.3,6.2,6.9,9.3,15.8,9.3,26.9v73.8h-15.8v-74.2c0-6.7-1.7-12.2-5-16.4-3.4-4.2-7.8-6.4-13.4-6.4h-14.4c-6.9,0-13.1,2.7-18.7,8-5.6,5.3-9.2,12.2-10.6,20.5v68.5h-15.8v-153.3h0Z"/>
          <path class="cls-2" d="M2720.2,940.6c-7.4-7.2-11.2-16.8-11.2-28.8v-31.3c0-12.6,3.7-22.7,11.2-30.3,7.4-7.7,17.3-11.5,29.6-11.5h18c11.7,0,21.1,3.7,28.2,11.2,7.2,7.4,10.7,17.3,10.7,29.6v19.3h-81.9v13.1c0,7.6,2.3,13.8,6.9,18.5,4.6,4.7,10.6,7.1,18.1,7.1h16.6c7.3,0,13.2-2,17.7-6,4.5-4,6.8-9.4,6.8-16.1h15.3c0,10.8-3.7,19.5-11,26.2-7.3,6.6-16.9,10-28.9,10h-16.6c-12.3,0-22.1-3.6-29.6-10.8h0ZM2790.9,885.1v-5.7c0-8-2.1-14.5-6.4-19.4-4.2-4.9-9.9-7.3-16.9-7.3h-18c-7.4,0-13.5,2.6-18.1,7.7s-6.9,11.8-6.9,20.1v4.6h66.1Z"/>
          <path class="cls-2" d="M2885.8,840.4h15.3v16.2c3.4-5.3,7.7-9.6,13.1-12.9s10.8-5,16.2-5h14.9c10.1,0,18.2,3.4,24.4,10.3,6.2,6.9,9.3,15.8,9.3,26.9v73.8h-15.8v-74.2c0-6.7-1.7-12.2-5-16.4-3.4-4.2-7.8-6.4-13.4-6.4h-14c-6.9,0-13.1,2.7-18.7,8.1-5.6,5.4-9.2,12.3-10.6,20.8v68.1h-15.8v-109.3h0Z"/>
          <path class="cls-2" d="M3080.5,942.3c-5-5-7.6-13.1-7.6-24.5v-63.3h-19.3v-14h19.3v-33.1h15.8v33.1h28.5v14h-28.5v63.3c0,6.4,1.3,11,3.8,13.8s6.8,4.2,12.8,4.2h11.8v14h-11.8c-11.5,0-19.8-2.5-24.9-7.4Z"/>
          <path class="cls-2" d="M3200.9,820.7c-2.2-2.2-3.3-5-3.3-8.5s1.1-6.4,3.3-8.5c2.2-2.2,5-3.3,8.5-3.3s6.4,1.1,8.5,3.3c2.2,2.2,3.3,5,3.3,8.5s-1.1,6.4-3.3,8.5c-2.2,2.2-5,3.3-8.5,3.3s-6.4-1.1-8.5-3.3ZM3201.5,840.4h15.8v109.3h-15.8v-109.3Z"/>
          <path class="cls-2" d="M3312.6,940.6c-7.3-7.2-11-16.8-11-28.8v-31.3c0-12.6,3.6-22.7,11-30.3,7.3-7.7,16.9-11.5,28.7-11.5h18c11.2,0,20.3,3.1,27.2,9.4,6.9,6.3,10.3,14.5,10.3,24.7h-15.3c0-6-2-10.8-6-14.6s-9.4-5.6-16.1-5.6h-18c-7.2,0-12.9,2.6-17.3,7.7-4.4,5.1-6.6,11.8-6.6,20.1v31.3c0,7.7,2.2,13.9,6.7,18.6,4.5,4.7,10.3,7,17.4,7h18c6.9,0,12.4-2.4,16.5-7.2s6.2-11.2,6.2-19.3h15.3c0,12.1-3.5,21.9-10.5,29.3s-16.2,11.2-27.6,11.2h-18c-12,0-21.6-3.6-28.9-10.8h0Z"/>
          <path class="cls-2" d="M3480.8,943.2c-6.4-5.5-9.5-13-9.5-22.3v-7c0-9.2,3.3-16.6,9.9-22.1,6.6-5.5,15.3-8.3,26.1-8.3h14c4.8,0,9.8.7,14.9,2.2,5.1,1.5,9.5,3.4,13.1,5.9v-18.2c0-6.1-1.9-11.1-5.7-15-3.8-3.9-8.8-5.8-15.1-5.8h-17.5c-6.3,0-11.3,1.5-15.1,4.4-3.8,2.9-5.7,6.8-5.7,11.6h-15.8c0-8.9,3.4-16.1,10.1-21.6,6.7-5.5,15.6-8.2,26.5-8.2h17.5c10.8,0,19.5,3.2,26.2,9.5,6.6,6.4,10,14.7,10,25.1v76.4h-14.9v-15.3c-3.4,5.3-7.8,9.4-13.3,12.5-5.5,3.1-11.1,4.6-17,4.6h-13.1c-10.7,0-19.2-2.8-25.5-8.3h0ZM3519.9,937.7c6.9,0,13-2.1,18.4-6.4,5.4-4.2,9.1-9.9,11-16.9v-8.1c-2.9-2.8-7-5-12.1-6.7-5.2-1.7-10.5-2.5-15.9-2.5h-14c-6,0-10.8,1.5-14.6,4.6s-5.6,7.1-5.6,12v7c0,5.1,1.8,9.2,5.3,12.3,3.5,3.1,8.2,4.6,14,4.6h13.6,0Z"/>
          <path class="cls-2" d="M3666.1,942.3c-5-5-7.6-13.1-7.6-24.5v-63.3h-19.3v-14h19.3v-33.1h15.8v33.1h28.5v14h-28.5v63.3c0,6.4,1.3,11,3.8,13.8s6.8,4.2,12.8,4.2h11.8v14h-11.8c-11.5,0-19.8-2.5-24.9-7.4Z"/>
          <path class="cls-2" d="M3786.4,820.7c-2.2-2.2-3.3-5-3.3-8.5s1.1-6.4,3.3-8.5c2.2-2.2,5-3.3,8.5-3.3s6.4,1.1,8.5,3.3c2.2,2.2,3.3,5,3.3,8.5s-1.1,6.4-3.3,8.5c-2.2,2.2-5,3.3-8.5,3.3s-6.4-1.1-8.5-3.3ZM3787.1,840.4h15.8v109.3h-15.8v-109.3Z"/>
          <path class="cls-2" d="M3898.3,940.1c-7.4-7.6-11.2-17.6-11.2-30v-30c0-12.4,3.8-22.4,11.3-30,7.5-7.6,17.5-11.4,29.9-11.4h18c12.4,0,22.4,3.8,29.9,11.4,7.5,7.6,11.3,17.6,11.3,30v30c0,12.4-3.8,22.4-11.4,30-7.6,7.6-17.7,11.4-30.2,11.4h-18c-12.3,0-22.1-3.8-29.6-11.4ZM3945.9,937.5c7.9,0,14.2-2.5,18.8-7.6,4.7-5,7-11.6,7-19.8v-30c0-8.2-2.3-14.8-7-19.8-4.7-5-10.8-7.6-18.4-7.6h-18c-7.6,0-13.7,2.5-18.4,7.6s-7,11.6-7,19.8v30c0,8.3,2.3,15,6.8,19.9,4.5,5,10.6,7.4,18.2,7.4h18,0Z"/>
          <path class="cls-2" d="M4067.8,840.4h15.3v16.2c3.4-5.3,7.7-9.6,13.1-12.9s10.8-5,16.2-5h14.9c10.1,0,18.2,3.4,24.4,10.3,6.2,6.9,9.3,15.8,9.3,26.9v73.8h-15.8v-74.2c0-6.7-1.7-12.2-5-16.4s-7.8-6.4-13.4-6.4h-14c-6.9,0-13.1,2.7-18.7,8.1-5.6,5.4-9.2,12.3-10.6,20.8v68.1h-15.8v-109.3h0Z"/>
        </g>
        <g>
          <path class="cls-1" d="M865.5,284.1c-21.4-30.4-46.8-57.8-75.5-81.6-23.3-19.3-48.7-36-75.5-49.7-24.1-12.3-49.5-22.3-75.5-29.7-24.6-7-50-11.7-75.5-13.9-24.9-2.2-50.7-2.2-75.5,0-25.5,2.3-51,7-75.5,13.9-5.5,1.6-8.8,7.3-7.2,12.9,1.6,5.5,7.3,8.8,12.9,7.2,23.4-6.6,47.5-11.1,71.8-13.2,23.6-2.1,48.1-2.1,71.8,0,24.2,2.2,48.4,6.6,71.7,13.2,24.7,7,48.9,16.5,71.7,28.2,25.5,13,49.6,28.9,71.8,47.2,27.3,22.5,51.4,48.6,71.8,77.5,46.9,66.6,71.7,145.1,71.7,226.9v172.6c0,52-10,102.5-29.6,150.2-2.2,5.3.3,11.4,5.7,13.6,1.3.5,2.7.8,4,.8,4.1,0,8-2.4,9.7-6.5,20.7-50.2,31.2-103.4,31.2-158.2v-172.6c0-86.1-26.1-168.8-75.5-238.9h0Z"/>
          <path class="cls-1" d="M120.6,606.8c5.8,0,10.4-4.7,10.4-10.4v-73.4c0-81.8,24.8-160.3,71.7-226.9,20.3-28.9,44.5-54.9,71.8-77.5,22.1-18.3,46.3-34.2,71.8-47.2,5.1-2.6,7.2-8.9,4.6-14s-8.9-7.2-14-4.5c-26.8,13.7-52.2,30.4-75.5,49.7-28.7,23.7-54.1,51.2-75.5,81.6-49.4,70.2-75.6,152.8-75.6,238.9v73.4c0,5.8,4.7,10.4,10.4,10.4h0Z"/>
          <path class="cls-1" d="M776.7,1000.1c-22.1,18.3-46.3,34.2-71.8,47.2-22.9,11.7-47,21.2-71.7,28.2-23.4,6.6-47.5,11.1-71.7,13.2-23.6,2.1-48.1,2.1-71.8,0-24.2-2.2-48.4-6.6-71.7-13.2-24.7-7-48.9-16.5-71.7-28.2-25.5-13-49.6-28.9-71.8-47.2-27.3-22.5-51.4-48.6-71.8-77.5-46.9-66.6-71.7-145.1-71.7-226.9v-7c0-5.8-4.7-10.4-10.4-10.4s-10.4,4.7-10.4,10.4v7c0,86.2,26.1,168.8,75.6,239,21.4,30.4,46.8,57.9,75.5,81.6,23.3,19.3,48.7,36,75.5,49.7,24.1,12.3,49.5,22.3,75.5,29.7,24.6,7,50,11.7,75.5,13.9,12.4,1.1,25.1,1.7,37.8,1.7s25.3-.6,37.8-1.7c25.5-2.3,51-7,75.5-13.9,26-7.4,51.5-17.3,75.5-29.7,26.8-13.7,52.2-30.4,75.5-49.7,4.4-3.7,5.1-10.2,1.4-14.7s-10.2-5.1-14.7-1.4h0Z"/>
          <path class="cls-1" d="M791.5,308.2c-3.6-4.5-10.2-5.2-14.7-1.6-4.5,3.6-5.2,10.2-1.5,14.7,46,56.8,71.3,128.5,71.3,201.7v172.6c0,46.7-9.8,91.6-29.1,133.7-2.4,5.2-.1,11.4,5.1,13.8,1.4.7,2.9,1,4.3,1,4,0,7.7-2.3,9.5-6.1,20.5-44.8,31-92.7,31-142.4v-172.6c0-39.8-6.8-78.8-20.2-115.9-12.9-35.9-31.7-69.1-55.8-98.9h0Z"/>
          <path class="cls-1" d="M715.5,238.8c-23.6-15.8-49.2-28.7-76-38.1-24.5-8.7-50-14.5-76-17.4-25-2.8-51-2.8-75.9,0-25.9,2.9-51.5,8.7-76,17.4-26.8,9.5-52.4,22.3-76,38.1-28.7,19.2-54.2,42.6-75.9,69.4-1.6,2-3.3,4.1-4.9,6.2-3.5,4.6-2.7,11.1,1.9,14.6,1.9,1.5,4.1,2.2,6.4,2.2s6.2-1.4,8.3-4.1c1.5-1.9,3-3.9,4.6-5.8,20.4-25.2,44.4-47.1,71.3-65.2,22.2-14.9,46.2-26.9,71.3-35.8,23-8.1,47-13.6,71.3-16.3,23.5-2.6,47.9-2.6,71.3,0,24.3,2.7,48.3,8.2,71.3,16.3,25.1,8.9,49.1,20.9,71.3,35.8,4.8,3.2,11.3,1.9,14.5-2.9,3.2-4.8,1.9-11.3-2.9-14.5Z"/>
          <path class="cls-1" d="M240.4,375.6c2.6-5.1.6-11.4-4.5-14.1-5.1-2.6-11.4-.6-14.1,4.5-24.9,48.1-38.1,102.5-38.1,157v172.6c0,39.8,6.8,78.8,20.2,116,12.9,35.9,31.7,69.2,55.8,98.9,21.7,26.8,47.3,50.2,75.9,69.4,23.6,15.8,49.2,28.7,76,38.1,24.5,8.7,50,14.5,76,17.4.4,0,.8,0,1.2,0,5.2,0,9.8-4,10.4-9.3.6-5.7-3.5-10.9-9.2-11.5-24.3-2.7-48.3-8.2-71.3-16.3-25.1-8.9-49.1-20.9-71.3-35.8-26.9-18-50.9-40-71.3-65.2-46-56.8-71.3-128.5-71.3-201.8v-172.6c0-52,12.1-101.6,35.8-147.5h0Z"/>
          <path class="cls-1" d="M775.2,897.4c-20.4,25.2-44.4,47.1-71.3,65.2-22.2,14.9-46.2,26.9-71.3,35.8-23,8.1-47,13.6-71.3,16.3-5.7.6-9.9,5.8-9.2,11.5.6,5.3,5.1,9.3,10.4,9.3s.8,0,1.2,0c25.9-2.9,51.5-8.7,76-17.4,26.8-9.5,52.3-22.3,76-38.1,28.7-19.2,54.2-42.5,76-69.4,3.6-4.5,2.9-11-1.5-14.7s-11-2.9-14.7,1.5h0Z"/>
          <path class="cls-1" d="M487.3,257.6c-26.6,3.8-52.4,11.6-76.6,23.1-28.6,13.6-54.4,32-76.6,54.7-49.4,50.4-76.6,117.1-76.6,187.7v172.6c0,40.2,8.7,78.9,25.8,115,1.8,3.8,5.5,6,9.4,6s3-.3,4.5-1c5.2-2.5,7.4-8.7,4.9-13.9-15.8-33.2-23.8-68.9-23.8-106v-172.6c0-65.1,25.1-126.6,70.7-173.1,20.5-20.9,44.3-37.9,70.7-50.4,22.3-10.6,46.1-17.8,70.6-21.3,5.7-.8,9.7-6.1,8.9-11.8-.8-5.7-6.1-9.7-11.8-8.9h0Z"/>
          <path class="cls-1" d="M793.8,574.2c0-5.8-4.7-10.4-10.4-10.4s-10.4,4.7-10.4,10.4v121.4c0,65.1-25.1,126.6-70.7,173.1-20.5,20.9-44.3,37.9-70.7,50.4-22.4,10.6-46.1,17.8-70.6,21.3-23.2,3.3-47.5,3.3-70.7,0-24.5-3.5-48.3-10.7-70.6-21.3-26.4-12.5-50.2-29.5-70.7-50.4-4-4.1-10.6-4.2-14.8-.2-4.1,4-4.2,10.6-.1,14.8,22.2,22.7,48,41.1,76.6,54.7,24.3,11.5,50,19.3,76.6,23.1,12.6,1.8,25.4,2.7,38.3,2.7s25.7-.9,38.3-2.7c26.6-3.8,52.4-11.6,76.6-23.1,28.6-13.6,54.4-32,76.6-54.7,49.4-50.4,76.6-117.1,76.6-187.7v-121.5h0Z"/>
          <path class="cls-1" d="M717.2,335.3c-22.2-22.7-48-41.1-76.6-54.7-24.2-11.5-50-19.3-76.6-23.1-5.7-.8-11,3.1-11.8,8.9-.8,5.7,3.1,11,8.9,11.8,24.6,3.5,48.3,10.7,70.7,21.3,26.4,12.5,50.2,29.5,70.7,50.4,45.6,46.5,70.7,108,70.7,173.1s4.7,10.4,10.4,10.4,10.4-4.7,10.4-10.4c0-70.6-27.2-137.3-76.6-187.7h0Z"/>
          <path class="cls-1" d="M341.5,512.6c-5.8,0-10.4,4.7-10.4,10.4v172.6c0,31.1,7.1,60.9,21.2,88.4,13.4,26.3,33,49.5,56.6,67.2,22.9,17.2,49.8,29.3,77.8,35,12.7,2.6,25.8,3.9,38.9,3.9s26.1-1.3,38.9-3.9c28-5.7,54.9-17.8,77.8-35,14.7-11.1,27.8-24.2,38.9-38.9,3.5-4.6,2.5-11.2-2.1-14.6-4.6-3.5-11.2-2.5-14.6,2.1-9.9,13.2-21.6,24.8-34.8,34.7-20.5,15.4-44.5,26.2-69.5,31.2-22.7,4.6-46.8,4.6-69.5,0-25-5.1-49-15.9-69.5-31.2-44.1-33.2-69.5-83.8-69.5-139v-172.6c0-5.8-4.7-10.4-10.4-10.4h0Z"/>
          <path class="cls-1" d="M709.7,706.1c5.8,0,10.4-4.7,10.4-10.4v-172.6c0-31.1-7.1-60.9-21.2-88.4-13.4-26.2-33-49.5-56.6-67.2-22.9-17.2-49.9-29.3-77.8-35-25.5-5.2-52.3-5.2-77.8,0-28,5.7-54.9,17.8-77.8,35-21.8,16.3-39.6,36.6-52.9,60.3-2.8,5-1.1,11.4,4,14.2s11.4,1,14.2-4c11.9-21.1,27.8-39.3,47.2-53.9,20.5-15.4,44.5-26.2,69.5-31.2,22.7-4.6,46.8-4.6,69.5,0,25,5.1,49,15.9,69.5,31.2,44.2,33.1,69.5,83.8,69.5,139v172.6c0,5.8,4.7,10.4,10.4,10.4h0Z"/>
          <path class="cls-1" d="M485.3,409c-48.2,17-80.6,62.9-80.6,114v172.6c0,27.3,8.9,53.1,25.8,74.6,2.1,2.6,5.1,4,8.2,4s4.5-.7,6.4-2.2c4.5-3.6,5.3-10.1,1.8-14.7-13.9-17.8-21.3-39.1-21.3-61.7v-172.6c0-42.3,26.8-80.2,66.7-94.3,5.4-1.9,8.3-7.9,6.4-13.3-1.9-5.4-7.9-8.3-13.3-6.4h0Z"/>
          <path class="cls-1" d="M558.9,790c-10.6,3.8-21.9,5.7-33.3,5.7s-22.7-1.9-33.3-5.7c-4.6-1.6-9-3.6-13.3-5.8-5.1-2.7-11.4-.8-14.1,4.3s-.8,11.4,4.4,14.1c5.2,2.7,10.6,5.1,16.1,7.1,12.9,4.6,26.5,6.9,40.3,6.9s27.4-2.3,40.3-6.9c48.2-17,80.6-62.9,80.6-114v-172.6c0-51.1-32.4-97-80.6-114-5.4-1.9-11.4.9-13.3,6.4-1.9,5.4.9,11.4,6.4,13.3,39.9,14.1,66.7,52,66.7,94.3v172.6c0,42.3-26.8,80.2-66.7,94.3h0Z"/>
          <path class="cls-1" d="M478.4,523v172.6c0,26.1,21.2,47.3,47.2,47.3s47.2-21.2,47.2-47.3v-172.6c0-26-21.2-47.2-47.2-47.2s-47.2,21.2-47.2,47.2h0ZM552,523v172.6c0,14.6-11.8,26.4-26.4,26.4s-26.4-11.8-26.4-26.4v-172.6c0-14.5,11.8-26.4,26.4-26.4s26.4,11.8,26.4,26.4h0Z"/>
        </g>
      </g>
    </g>
  </g>
</svg>