<svg width="16" height="16" viewBox="0 0 16 16" fill="none" xmlns="http://www.w3.org/2000/svg">
<g clip-path="url(#clip0_1_320)">
<path d="M13.3438 0H2.65625C1.18924 0 0 1.21779 0 2.72V13.2544C0 14.7566 1.18924 15.9744 2.65625 15.9744H13.3438C14.8108 15.9744 16 14.7566 16 13.2544V2.72C16 1.21779 14.8108 0 13.3438 0Z" fill="#470137"/>
<path d="M8.4108 4.20205L6.41438 7.57627L8.55032 11.1593C8.56402 11.1844 8.56786 11.2139 8.56106 11.2417C8.55772 11.2536 8.55061 11.2566 8.53969 11.257L8.52751 11.2568L8.51279 11.2564C8.50479 11.2564 8.49584 11.2568 8.48593 11.2585L6.94595 11.2585L6.91567 11.258C6.83264 11.2558 6.77288 11.2436 6.73638 11.1813C6.59316 10.8955 6.45005 10.6116 6.30706 10.3295C6.18173 10.0828 6.04965 9.83171 5.91082 9.57639L5.8509 9.4667C5.6899 9.17374 5.53069 8.87698 5.37327 8.57644H5.36252C5.21929 8.86959 5.07081 9.16268 4.91708 9.45572C4.76314 9.74887 4.61109 10.0401 4.46093 10.3295C4.31067 10.619 4.15683 10.9066 3.99941 11.1923C3.9741 11.2505 3.93207 11.2626 3.87345 11.2647L3.84911 11.265H2.37867L2.37231 11.2652L2.35127 11.2672C2.3396 11.2679 2.33263 11.2653 2.33036 11.2472C2.32632 11.2204 2.33206 11.193 2.34648 11.1703L4.41799 7.68617L2.40012 4.19105C2.37867 4.16187 2.37509 4.13806 2.38938 4.11962C2.40545 4.10061 2.4293 4.09043 2.4538 4.09213H3.96718C4.00018 4.09029 4.03317 4.09591 4.06379 4.10863C4.08946 4.12352 4.11147 4.14419 4.12818 4.16908C4.25699 4.46222 4.4001 4.75531 4.55751 5.04835C4.71484 5.3415 4.87405 5.63093 5.03515 5.91663C5.19615 6.2024 5.34463 6.49183 5.48059 6.78492H5.49133C5.63437 6.48455 5.77927 6.19146 5.92603 5.90565C6.07261 5.61989 6.22288 5.33228 6.37681 5.04285C6.53062 4.75349 6.6791 4.46589 6.82226 4.18007C6.83048 4.15294 6.84525 4.12838 6.86519 4.10864C6.89169 4.09486 6.92149 4.08913 6.95106 4.09214H8.35712C8.38504 4.08508 8.41401 4.09877 8.42688 4.12512C8.43857 4.14906 8.43411 4.17765 8.41648 4.19665L8.4108 4.20205ZM11.5652 11.4003L11.4911 11.4011C10.9971 11.4088 10.5076 11.3037 10.0582 11.0934C9.6396 10.895 9.28966 10.5711 9.05468 10.1646C8.81772 9.76164 8.69613 9.25956 8.68998 8.65838L8.68974 8.60942C8.6857 8.10498 8.81157 7.60836 9.05468 7.1696C9.29814 6.7351 9.65298 6.3774 10.0805 6.13497L10.1173 6.11447C10.5823 5.85069 11.144 5.7188 11.8024 5.7188L11.8312 5.71914L11.8641 5.72018L11.901 5.72189L11.9419 5.7243L12.0108 5.72927L12.0888 5.73569L12.1459 5.74078V3.57557C12.1459 3.52439 12.1673 3.49863 12.2103 3.49863H13.5627C13.5804 3.49604 13.5983 3.50214 13.611 3.51511C13.6236 3.52808 13.6296 3.5464 13.6271 3.56457V10.0602C13.6271 10.1693 13.6312 10.2867 13.6394 10.4125L13.6594 10.6976L13.67 10.8625C13.6727 10.9093 13.6471 10.9529 13.6056 10.9725C13.2567 11.1215 12.8933 11.232 12.5215 11.3022C12.2059 11.3618 11.886 11.3946 11.5652 11.4003ZM12.1459 10.0382V7.03772C12.0878 7.02163 12.0286 7.01059 11.9688 7.00473C11.8957 6.99721 11.8222 6.99354 11.7487 6.99375C11.4883 6.9911 11.2309 7.05134 10.9974 7.1696C10.77 7.28535 10.5758 7.45956 10.4339 7.67518C10.2922 7.88742 10.219 8.16455 10.2141 8.50658L10.2139 8.54347C10.2086 8.78306 10.2468 9.02156 10.3266 9.24689C10.3914 9.42844 10.494 9.59343 10.6271 9.73049C10.7546 9.85659 10.9089 9.95065 11.0779 10.0053C11.2564 10.0645 11.443 10.0941 11.6307 10.0932C11.7308 10.0932 11.8238 10.0895 11.9097 10.0822C11.9783 10.0769 12.0462 10.0653 12.1127 10.0476L12.1459 10.0382Z" fill="#FF61F6"/>
</g>
<defs>
<clipPath id="clip0_1_320">
<rect width="16" height="16" fill="white"/>
</clipPath>
</defs>
</svg>
